<?xml version="1.0" standalone="no"?>
<!DOCTYPE svg PUBLIC "-//W3C//DTD SVG 1.1//EN" "http://www.w3.org/Graphics/SVG/1.1/DTD/svg11.dtd" >
<svg xmlns="http://www.w3.org/2000/svg">
<metadata>Generated by IcoMoon</metadata>
<defs>
<font id="icomoon" horiz-adv-x="1024">
<font-face units-per-em="1024" ascent="960" descent="-64" />
<missing-glyph horiz-adv-x="1024" />
<glyph unicode="&#x20;" horiz-adv-x="512" d="" />
<glyph unicode="&#xe900;" glyph-name="cbz_balance-refresher" horiz-adv-x="931" d="M777.991 698.597c0 0.888 0 2.072 0 2.96 0 28.716-0.296 57.432 0 86.147 0.296 23.683 10.953 41.149 31.972 51.807 23.387 11.842 52.399 5.033 68.977-15.394 8.585-10.953 12.73-23.091 12.73-37.005 0-74.898 0-149.796 0-224.694 0-7.401-0.888-14.506-3.849-21.611-7.993-19.835-22.795-31.972-43.814-35.821-3.849-0.592-7.697-0.888-11.249-0.888-74.010 0-148.316 0-222.326 0-9.769 0-18.947 1.776-27.828 5.921-21.907 10.657-34.637 35.821-30.492 59.8 4.441 25.459 23.979 44.11 49.439 47.366 2.96 0.296 6.217 0.296 9.473 0.296 27.532 0 54.767 0 82.299 0 1.184 0 2.368 0 4.145 0-0.888 1.184-1.48 1.776-2.072 2.368-11.249 11.249-22.499 22.795-34.341 34.045-18.947 18.058-40.261 33.156-63.352 45.294-24.275 12.73-49.735 21.611-76.378 26.644-24.867 4.737-50.031 6.513-75.49 4.441-39.077-2.96-75.786-13.322-110.719-31.38-27.236-12.73-50.623-30.196-71.642-51.215-21.907-22.203-39.965-47.366-53.287-75.194-5.033-10.657-8.881-21.611-13.618-32.268-8.289-19.243-22.795-30.788-43.222-34.341-26.94-4.737-55.655 11.249-63.944 41.446-3.256 11.546-2.368 23.091 1.48 34.341 16.874 47.366 41.742 90.292 74.898 128.185 28.124 32.268 60.688 59.504 97.693 81.411 32.564 19.243 67.201 33.748 103.91 42.926 24.275 6.217 48.846 10.065 74.010 11.546 21.907 1.184 43.814 0.888 65.721-1.48 41.742-4.441 81.707-15.098 120.192-32.268 36.117-15.986 69.273-36.709 98.581-63.056 17.17-15.098 32.86-31.676 49.143-47.662 0.888-0.592 1.48-1.48 2.072-2.368 0.296-0.592 0.592-0.296 0.888-0.296zM153.052 196.811c0-0.888 0-2.072 0-2.96 0-28.42 0-56.84 0-84.963 0-11.546-2.368-22.203-8.881-31.972-11.842-17.762-28.42-27.236-50.031-26.347-23.091 0.888-39.669 12.434-49.735 33.156-3.552 7.401-5.033 15.098-5.033 23.091 0 76.378-0.296 153.052 0.296 229.43 0.296 30.788 25.755 53.287 53.287 54.471 4.145 0.296 8.585 0.296 12.73 0.296 71.642 0 143.283 0 214.925 0 10.065 0 19.539-1.776 28.716-6.217 21.315-10.657 34.045-35.821 29.9-59.208-4.145-23.979-20.427-41.446-44.11-46.774-4.737-0.888-9.473-1.184-14.21-1.184-27.532 0-55.063 0-82.891 0-1.184 0-2.368 0-3.849 0 0.296-0.592 0.592-1.184 0.592-1.184 14.21-13.914 27.828-28.42 42.334-41.446 33.748-30.196 72.826-50.623 116.936-61.872 30.196-7.697 60.688-10.657 91.772-8.289 39.077 2.96 75.786 13.322 110.719 31.38 26.347 13.618 49.735 31.084 70.753 52.103 21.907 22.203 39.965 47.070 53.287 75.194 5.033 10.361 8.881 21.019 13.322 31.676 10.657 25.755 36.117 39.669 63.648 34.933 29.9-5.329 50.623-35.525 44.998-64.833-2.368-12.138-7.401-23.091-12.138-34.341-21.907-50.919-53.287-95.029-93.548-132.922-35.821-33.452-76.674-59.8-121.968-78.154-28.42-11.546-58.024-19.539-88.22-24.275-29.9-4.737-60.096-5.625-90.292-3.552-41.446 2.96-81.411 12.138-120.192 27.828-36.117 14.506-69.273 34.045-99.765 58.616-15.394 12.434-29.9 26.347-43.814 40.261-6.217 6.217-12.73 12.73-18.947 18.947 0-0.592-0.296-0.592-0.592-0.888z" />
<glyph unicode="&#xe901;" glyph-name="cbz_biometric" horiz-adv-x="931" d="M39.965 419.728c0.888 21.315 1.48 42.63 2.96 63.944 1.48 20.131 5.329 39.965 10.065 59.504 11.249 45.886 29.9 88.516 55.359 128.185 26.644 41.446 59.8 77.266 98.877 107.166 50.031 38.189 105.39 64.241 166.966 77.562 38.781 8.585 77.858 11.842 117.528 9.177 92.068-5.921 173.479-38.189 244.825-96.805 18.354-15.098 35.525-31.972 50.919-50.031 13.618-15.69 13.618-38.781-0.888-54.175-13.618-14.21-35.525-16.874-52.103-4.737-4.145 3.256-7.697 7.401-11.249 11.249-44.11 48.55-97.397 82.595-160.157 101.245-22.499 6.809-45.59 10.953-68.977 12.73-21.315 1.776-42.63 1.48-63.944-0.592-39.965-4.145-78.154-14.802-114.271-32.268-35.229-16.874-66.609-39.373-94.141-66.905-29.604-29.604-53.287-63.648-70.457-101.838-14.802-32.564-24.571-66.905-28.124-102.43-1.48-15.098-2.072-30.196-2.368-45.294-0.296-20.131 0-39.965 0-60.096 0-20.723-13.618-36.413-34.045-39.965s-41.446 11.249-44.998 31.972c-0.592 2.96-0.592 5.625-0.592 8.585 0 14.506 0 29.012 0 43.518-0.592 0.296-0.888 0.296-1.184 0.296zM625.235 401.078c0-34.341-1.776-68.385-5.033-102.43-3.256-31.676-7.993-63.056-13.914-94.141-2.96-15.098-15.986-27.236-30.196-28.716-19.539-2.072-33.156 9.473-38.485 22.203-4.441 9.769-2.96 19.539-1.48 29.9 4.145 26.051 8.289 52.399 11.249 78.746 5.329 45.886 5.625 91.772 4.737 137.658-0.592 34.341-23.091 65.129-55.063 77.562-33.156 12.73-70.457 3.849-94.141-22.203-15.69-17.17-23.091-37.301-23.091-60.096 0-22.499 0-44.998-0.592-67.497-0.888-30.788-4.145-61.576-8.881-92.068-4.145-25.755-9.473-51.511-16.282-76.674-4.441-16.874-16.874-27.236-34.045-27.532-15.986-0.296-31.084 10.953-35.525 26.644-2.072 7.105-2.368 14.506-0.296 21.611 7.993 29.604 13.618 59.8 17.466 90.292 3.849 29.308 5.329 58.616 5.329 88.22 0 13.914-0.296 28.124 0.296 42.038 0.888 42.334 16.578 79.042 46.478 108.646 35.229 35.229 78.45 50.623 128.185 46.182 37.597-3.256 70.161-18.947 96.805-45.294 25.459-25.163 41.446-55.655 45.294-91.18 2.072-18.947 1.184-38.189 1.776-57.432-0.592-1.48-0.592-2.96-0.592-4.441zM758.157 382.131c-1.184-21.315-2.664-52.399-4.737-83.483-0.888-12.434-2.368-25.163-3.849-37.597-2.664-19.835-22.499-34.637-42.334-31.972-23.979 3.256-38.781 23.091-36.117 47.958 4.737 41.446 7.105 82.891 7.105 124.633 0 17.466 0.296 35.229-0.592 52.695-1.48 33.156-10.953 63.944-27.532 92.66-20.131 34.637-47.662 61.872-82.891 81.115-37.005 20.131-76.97 28.42-118.712 24.867-14.506-1.184-28.716-5.033-42.926-7.401-20.723-3.552-41.742 5.033-50.327 25.163-8.289 19.539 0 42.334 21.611 49.143 34.045 10.657 68.681 15.394 104.206 13.618 51.511-2.96 99.173-17.762 142.691-45.59 50.623-32.564 87.628-76.674 111.607-131.737 10.953-25.163 17.762-51.215 21.019-78.45 2.96-28.716 1.184-57.136 1.776-95.621zM506.523 396.045c-1.48-26.347-2.664-52.991-4.737-79.339-3.256-38.485-9.769-76.674-18.354-114.567-11.546-50.919-27.828-100.357-47.662-148.612-6.217-15.394-21.019-24.275-38.189-23.979-15.394 0.296-30.196 11.249-35.525 26.051-3.256 9.473-2.96 19.243 0.592 28.716 9.177 25.163 18.947 50.327 27.236 76.082 12.138 37.597 20.427 76.082 26.644 115.159 7.697 49.439 10.065 99.173 9.769 149.204 0 6.217 0 12.73 0.296 18.947 0.888 20.723 18.058 36.709 39.077 37.005 20.723 0.296 38.485-15.098 39.669-35.525 0.888-16.282 0.296-32.86 0.296-49.439 0 0.296 0.296 0.296 0.888 0.296zM159.565 274.669c0.888 5.033 2.664 13.618 4.145 21.907 6.513 34.933 9.473 70.161 9.769 105.686 0 18.947 0 37.893 0.592 56.84 0.888 25.755 6.217 50.919 14.506 75.49 10.361 30.788 25.459 59.208 45.59 84.963 8.289 10.657 19.243 15.394 32.268 13.322 14.506-2.072 25.163-10.361 30.788-23.979 6.809-16.874 3.256-32.564-6.809-47.070-18.354-26.94-30.196-56.247-34.933-88.22-1.48-10.953-2.072-22.499-2.368-33.452-0.592-21.315-0.296-42.63-0.888-63.648-0.592-31.38-4.441-62.464-10.361-93.548-1.48-8.585-2.96-17.17-5.329-25.459-7.105-26.051-36.413-36.413-58.912-21.315-10.953 7.105-18.058 21.315-18.058 38.485zM890.782 424.465c0-20.131 0-34.933 0-49.735-0.296-19.835-13.618-35.525-32.86-39.077-21.019-3.849-42.334 10.657-45.886 31.972-0.592 2.96-0.592 6.217-0.592 9.177-0.296 26.347 0 52.695-0.592 78.746-0.296 19.539-3.552 38.781-7.105 58.024-4.441 22.795 12.138 44.702 34.933 46.774 21.315 2.072 39.077-11.842 43.518-33.156 7.105-35.525 9.473-71.642 8.585-102.726z" />
<glyph unicode="&#xe902;" glyph-name="cbz_botton-nav-buy" horiz-adv-x="931" d="M36.709 249.21v397.285c0 75.194 38.189 113.087 114.567 113.087h628.491c76.674 0 114.567-37.893 114.567-113.087v-397.285c0-75.194-37.893-112.791-114.567-112.791h-628.491c-76.378 0-114.567 37.597-114.567 112.791zM95.621 614.226h740.098v29.012c0 37.893-20.723 57.728-56.544 57.728h-627.011c-36.413 0-56.544-19.835-56.544-57.728v-29.012zM778.879 195.034c35.821 0 56.544 19.243 56.544 57.136v279.165h-740.098v-278.869c0-37.893 20.131-57.136 56.544-57.136h627.011zM164.894 298.944v67.497c0 20.723 14.21 34.933 35.821 34.933h89.404c21.611 0 35.821-14.21 35.821-34.933v-67.497c0-20.427-14.21-34.933-35.821-34.933h-89.404c-21.611 0-35.821 14.506-35.821 34.933z" />
<glyph unicode="&#xe903;" glyph-name="cbz_botton-pay" horiz-adv-x="931" d="M59.504 595.872c0 94.733 47.958 141.803 143.579 141.803h72.826c2.664 96.213 86.147 177.92 189.465 177.92s187.097-82.003 189.465-177.92h73.122c95.325 0 143.579-47.662 143.579-141.803v-473.663c0-94.141-47.958-141.803-129.961-141.803h-538.496c-95.621 0-143.579 47.070-143.579 141.803v473.663zM203.971 54.12h536.423c31.676 0 57.728 24.275 57.728 71.938v465.966c0 47.662-26.051 71.938-71.345 71.938h-522.805c-45.886 0-71.049-24.275-71.049-71.938v-466.262c0-47.662 25.163-71.642 71.049-71.642zM581.125 737.674c-2.072 59.504-51.215 108.35-115.751 108.35s-113.679-48.846-115.751-108.35h231.503z" />
<glyph unicode="&#xe904;" glyph-name="cbz_botton--settings" horiz-adv-x="931" d="M363.832 70.402l-17.466 74.602-12.73 4.441-64.537-39.669c-25.755-16.282-56.247-12.434-78.154 9.473l-55.359 55.359c-21.907 21.907-26.347 52.103-9.473 77.562l40.261 64.537-4.441 11.842-74.602 17.466c-29.012 7.105-48.254 31.084-48.254 61.28v79.042c0 30.196 18.65 54.175 48.254 61.28l73.714 18.058 4.737 12.73-40.261 64.537c-16.578 25.459-12.434 55.359 9.473 77.562l55.359 55.655c21.611 21.611 51.807 25.459 77.562 9.473l64.537-39.965 13.618 5.329 17.466 74.306c7.105 29.604 30.788 48.254 61.28 48.254h80.523c30.788 0 54.175-18.65 61.28-48.254l17.17-74.306 13.618-5.329 64.833 39.965c26.051 15.986 55.655 11.842 77.266-9.473l55.951-55.951c21.907-22.203 25.755-52.103 9.473-77.562l-40.557-64.537 5.329-12.73 73.714-18.058c29.308-7.105 48.254-31.084 48.254-61.28v-78.746c0-30.196-19.243-54.175-48.254-61.28l-74.602-17.466-4.737-11.842 40.557-64.537c16.282-25.459 12.434-55.655-9.473-77.562l-55.655-55.359c-21.907-21.907-51.807-25.755-77.562-9.473l-64.833 39.669-12.73-4.441-17.17-74.602c-7.105-29.308-30.492-48.254-61.28-48.254h-80.523c-30.788 0.296-54.175 18.947-61.576 48.254zM499.418 84.316c6.809 0 10.361 2.664 11.249 9.177l24.275 98.877c24.275 5.921 46.478 15.394 63.648 26.347l86.74-53.287c5.329-3.552 10.065-2.664 15.098 2.072l46.478 47.070c4.737 4.441 4.737 9.177 1.48 14.802l-53.287 86.147c9.473 16.578 19.539 39.373 25.755 63.648l99.173 23.387c5.921 1.184 9.177 4.737 9.177 11.546v66.609c0 7.105-2.664 10.361-9.177 11.546l-98.877 23.979c-6.513 25.755-17.762 49.439-25.459 64.241l53.287 85.259c3.552 5.921 3.552 10.657-1.184 15.394l-47.070 46.182c-5.033 4.737-9.177 5.625-15.394 2.072l-86.443-52.695c-17.762 9.473-39.373 19.539-64.241 25.755l-24.275 99.469c-0.888 6.513-4.441 9.177-11.249 9.177h-67.793c-6.809 0-10.361-2.664-11.546-9.177l-23.091-98.285c-23.979-6.809-48.254-16.578-65.425-26.347l-85.851 52.103c-5.921 3.552-10.361 2.664-15.098-2.072l-47.366-46.182c-4.441-4.737-4.737-9.473-1.184-15.394l52.991-86.147c-7.105-14.802-19.243-38.189-25.459-64.241l-98.285-23.979c-6.809-1.184-9.177-4.441-9.177-11.546v-66.609c0-6.809 2.664-10.361 9.177-11.546l98.877-23.387c6.513-24.275 16.874-47.070 25.755-63.648l-53.287-86.147c-3.256-5.625-2.664-10.361 1.48-14.802l47.070-47.070c4.737-4.737 10.065-5.625 14.802-2.072l86.74 53.287c17.17-10.657 39.965-20.427 64.241-26.347l23.979-98.877c1.184-6.513 4.737-9.177 11.546-9.177h67.201zM313.506 447.852c0 82.891 68.977 151.276 152.164 151.276s151.572-68.385 151.572-151.276c0-83.483-68.385-152.164-151.572-152.164-83.779 0.296-152.164 68.977-152.164 152.164zM554.778 447.852c0 48.846-40.557 89.7-89.108 89.7-49.439 0-89.996-40.557-89.996-89.7 0-49.735 40.557-90.292 89.996-90.292 48.254 0 89.108 41.149 89.108 90.292z" />
<glyph unicode="&#xe905;" glyph-name="cbz_botton-transfer" horiz-adv-x="931" d="M637.077-22.851c-7.401-6.809-18.058-11.546-27.236-11.546-21.611 0-35.821 14.802-35.821 35.821 0 10.657 3.256 18.65 10.361 25.755l88.22 84.963 76.082 65.721-94.437-4.145h-546.193c-21.315 0-36.709 15.098-36.709 36.709 0 21.315 15.394 36.413 36.709 36.413h545.6l94.437-4.145-75.786 66.017-88.22 85.259c-6.809 6.513-10.361 14.802-10.361 25.459 0 21.315 14.21 35.821 35.821 35.821 9.473 0 20.131-4.441 27.236-11.546l210.188-205.747c15.986-15.394 16.282-39.077 0-55.063l-209.892-205.747zM293.967 918.851c7.401 7.401 18.058 11.546 26.94 11.546 21.611 0 36.413-14.802 36.413-35.821 0-10.657-3.552-18.354-10.657-25.459l-87.924-85.259-75.786-65.425 94.437 3.552h545.6c21.315 0 36.413-15.098 36.413-36.413 0-21.611-15.098-36.709-36.413-36.709h-545.6l-94.437 4.145 76.082-65.721 87.924-84.963c6.809-6.809 10.657-15.098 10.657-25.459 0-21.315-14.802-36.413-36.413-36.413-8.881 0-19.539 4.441-26.94 11.842l-210.484 205.747c-15.986 15.098-16.874 38.781 0 54.767l210.188 206.043z" />
<glyph unicode="&#xe906;" glyph-name="cbz_buy" horiz-adv-x="931" d="M59.8 595.576c0 94.733 47.958 141.803 143.579 141.803h72.53c2.664 95.917 85.851 177.92 189.169 177.92s186.801-81.707 189.169-177.92h73.122c95.029 0 143.579-47.662 143.579-141.803v-473.071c0-94.141-47.958-141.803-129.665-141.803h-537.903c-95.621 0-143.579 47.070-143.579 141.803v473.071zM204.267 54.416h535.535c31.676 0 57.728 24.275 57.728 71.642v465.966c0 47.662-26.051 71.642-71.345 71.642h-521.917c-45.59 0-70.753-24.275-70.753-71.642v-465.67c0-47.662 25.163-71.938 70.753-71.938zM580.829 737.378c-1.776 59.504-51.215 108.35-115.751 108.35s-113.383-48.846-115.751-108.35h231.503z" />
<glyph unicode="&#xe907;" glyph-name="cbz_card-options" horiz-adv-x="931" d="M465.078 879.773c-235.943 0-431.329-195.682-431.329-431.921 0-235.647 195.978-431.921 431.921-431.921 236.239 0 431.921 195.978 431.921 431.921-0.296 236.239-196.274 431.921-432.513 431.921zM267.916 509.724c33.452 0 61.28-27.532 61.28-61.28 0-34.341-27.532-61.872-61.28-61.872-34.341 0-61.872 27.532-61.872 61.872 0 33.748 27.532 61.28 61.872 61.28zM403.206 448.444c0 33.748 27.828 61.28 61.872 61.28 33.748 0 61.872-27.532 61.872-61.28 0-34.341-27.828-61.872-61.872-61.872-33.748 0-61.872 27.532-61.872 61.872zM662.832 386.572c-34.341 0-61.872 27.532-61.872 61.872 0 33.748 27.532 61.28 61.872 61.28 33.748 0 61.28-27.532 61.28-61.28 0-34.341-27.532-61.872-61.28-61.872z" />
<glyph unicode="&#xe908;" horiz-adv-x="2469" d="M979.89 447.852c0 254.298-206.043 460.341-460.341 460.341-254.002 0-460.045-206.043-460.045-460.341s206.043-460.341 460.341-460.341c254.002 0.296 460.045 206.339 460.045 460.341z" />
<glyph unicode="&#xe909;" horiz-adv-x="2469" d="M1233.3 586.102v-273.54h-44.998v113.975h-117.232v-113.975h-44.702v273.54h44.702v-116.343h117.232v116.343z" />
<glyph unicode="&#xe90a;" horiz-adv-x="2469" d="M1256.095 410.255c0 58.32 46.182 102.726 103.318 102.726 57.432 0 103.318-44.406 103.318-102.726 0-57.728-45.59-102.726-103.318-102.726-57.136 0-103.318 44.998-103.318 102.726zM1420.397 410.255c0 35.525-26.644 61.872-60.984 61.872s-60.984-26.051-60.984-61.872c0-35.525 26.644-61.872 60.984-61.872s60.984 26.347 60.984 61.872z" />
<glyph unicode="&#xe90b;" horiz-adv-x="2469" d="M1485.229 586.102h42.334v-273.54h-42.334v273.54z" />
<glyph unicode="&#xe90c;" horiz-adv-x="2469" d="M1756.697 586.102v-273.54h-42.334v28.124c-14.802-20.723-37.893-33.156-68.385-33.156-53.287 0-97.397 44.998-97.397 102.726 0 58.32 44.11 102.726 97.397 102.726 30.492 0 53.583-12.434 68.385-32.86v105.982h42.334zM1714.66 410.255c0 36.413-26.644 62.464-61.872 62.464s-61.872-26.051-61.872-62.464 26.644-62.464 61.872-62.464c35.229 0 61.872 26.051 61.872 62.464z" />
<glyph unicode="&#xe90d;" horiz-adv-x="2469" d="M1773.276 559.163c0 14.802 12.138 26.94 26.94 26.94s26.94-12.138 26.94-26.94c0-14.506-12.138-26.94-26.94-26.94s-26.94 12.434-26.94 26.94zM1779.196 507.948h42.334v-195.386h-42.334v195.386z" />
<glyph unicode="&#xe90e;" horiz-adv-x="2469" d="M2021.949 432.458v-119.896h-42.334v115.751c0 29.604-17.17 45.294-43.814 45.294-27.828 0-49.735-16.282-49.735-56.247v-104.798h-41.742v195.386h42.334v-24.867c13.026 20.427 34.045 30.196 60.688 30.196 43.518-0.296 74.602-29.9 74.602-80.819z" />
<glyph unicode="&#xe90f;" horiz-adv-x="2469" d="M2250.787 507.948v-186.505c0-63.056-49.143-92.364-100.357-92.364-42.926 0-76.082 15.986-92.66 47.366l36.413 21.019c8.585-16.874 23.091-30.196 57.136-30.196 36.413 0 58.32 19.835 58.32 53.879v23.979c-14.802-21.019-37.893-34.045-68.089-34.045-55.063 0-98.581 44.998-98.581 100.949s43.518 100.949 98.581 100.949c30.196 0 53.287-13.026 68.089-34.045v29.012h41.149zM2209.341 412.327c0 35.229-26.644 61.28-62.168 61.28s-62.168-26.051-62.168-61.28c0-35.229 26.644-61.28 62.168-61.28 35.525-0.296 62.168 26.051 62.168 61.28z" />
<glyph unicode="&#xe910;" horiz-adv-x="2469" d="M2423.082 367.625c0-39.077-34.045-60.096-76.082-60.096-39.077 0-67.201 17.466-79.635 45.59l36.413 21.019c6.217-17.466 21.907-28.124 43.518-28.124 18.65 0 33.156 6.217 33.156 21.907 0 34.637-105.094 15.098-105.094 85.259 0 36.709 31.676 59.8 71.642 59.8 31.972 0 58.616-14.802 72.234-40.557l-35.525-19.835c-7.105 15.098-20.723 22.203-36.709 22.203-15.098 0-28.42-6.513-28.42-20.723-0.592-35.525 104.502-14.21 104.502-86.443z" />
<glyph unicode="&#xe911;" horiz-adv-x="2469" d="M95.917 448.444c0 81.115 61.576 143.875 144.171 143.875 52.695 0 99.765-27.828 123.152-69.569l-71.345-41.446c-9.177 18.947-29.012 30.492-52.695 30.492-35.525 0-61.576-25.459-61.576-63.056s26.051-63.056 61.576-63.056c23.979 0 44.11 11.546 52.695 30.492l71.345-40.853c-23.387-42.334-69.569-70.161-123.152-70.161-82.595-0.296-144.171 62.168-144.171 143.283z" />
<glyph unicode="&#xe912;" horiz-adv-x="2469" d="M682.371 448.444c0-81.115-58.912-143.875-130.257-143.875-36.413 0-63.056 12.434-81.115 33.156v-25.459h-81.707v381.299h81.707v-134.402c18.058 20.723 44.702 33.156 81.115 33.156 71.345 0 130.257-62.76 130.257-143.875zM601.552 448.444c0 40.853-27.532 66.313-65.129 66.313-37.893 0-65.129-25.459-65.129-66.313s27.532-66.313 65.129-66.313c37.597 0 65.129 25.459 65.129 66.313z" />
<glyph unicode="&#xe913;" horiz-adv-x="2469" d="M923.939 388.94v-76.674h-219.069v76.674l107.758 120.488h-107.758v76.674h219.069v-76.674l-108.942-120.488z" />
<glyph unicode="&#xe914;" horiz-adv-x="931" d="M912.097 492.554c0 246.897-199.827 446.723-446.723 446.723-246.601 0-446.723-199.827-446.723-446.723 0-246.601 200.123-446.723 446.723-446.723 246.897 0 446.723 200.123 446.723 446.723z" />
<glyph unicode="&#xe915;" horiz-adv-x="931" d="M54.175 493.146c0 78.746 59.8 139.435 140.027 139.435 51.215 0 96.805-26.94 119.304-67.793l-68.977-39.965c-8.881 18.354-28.124 29.604-51.215 29.604-34.341 0-59.8-24.867-59.8-61.28s25.459-61.28 59.8-61.28c23.387 0 42.926 10.953 51.215 29.604l69.273-39.669c-22.795-41.149-67.793-68.089-119.304-68.089-80.523 0-140.323 60.688-140.323 139.435z" />
<glyph unicode="&#xe916;" horiz-adv-x="931" d="M544.712 493.146c0 39.669-26.644 64.537-63.352 64.537s-63.352-24.867-63.352-64.537c0-39.669 26.644-64.537 63.352-64.537 37.005 0 63.352 24.867 63.352 64.537zM623.459 493.146c0-78.746-57.136-139.435-126.409-139.435-35.525 0-61.28 12.138-78.746 32.268v-24.867h-79.339v370.049h79.339v-130.553c17.466 20.131 43.222 32.268 78.746 32.268 69.273-0.296 126.409-60.984 126.409-139.731z" />
<glyph unicode="&#xe917;" horiz-adv-x="931" d="M857.922 435.418v-74.306h-212.556v74.306l104.502 116.936h-104.502v74.306h212.556v-74.306l-105.982-116.936z" />
<glyph unicode="&#xe918;" horiz-adv-x="931" d="M520.437 259.867c0-28.124-22.795-50.919-51.215-50.919-28.124 0-51.215 22.795-51.215 50.919v68.977h28.716v-68.977c0-12.138 10.065-22.203 22.203-22.203 12.434 0 22.203 10.065 22.203 22.203v68.977h28.716v-68.977z" />
<glyph unicode="&#xe919;" horiz-adv-x="931" d="M148.020 300.128v28.716h102.43v-28.716h-36.709v-87.924h-29.012v87.924z" />
<glyph unicode="&#xe91a;" horiz-adv-x="931" d="M696.581 258.979v-46.774h-29.012v116.639h29.012v-41.149h44.702v41.149h28.716v-116.639h-28.716v46.774z" />
<glyph unicode="&#xe91b;" horiz-adv-x="931" d="M597.999 208.948c-34.341 0-62.168 27.532-62.168 61.576s27.828 61.576 62.168 61.576c23.387 0 41.742-11.842 53.879-31.084l-24.571-15.098c-6.809 10.657-16.282 17.466-29.604 17.466-18.354 0-33.156-14.802-33.156-32.86s14.802-32.86 33.156-32.86c13.322 0 22.795 6.809 29.604 17.466l24.571-15.098c-11.842-19.243-30.492-31.084-53.879-31.084z" />
<glyph unicode="&#xe91c;" horiz-adv-x="931" d="M469.518 163.062c-6.809 0-13.026-2.368-18.058-6.217-2.664 13.322-14.506 23.091-28.42 23.091-7.105 0-13.322-2.368-18.354-6.513-3.256 12.434-14.506 21.611-28.124 21.611-6.513 0-12.73-2.072-17.466-5.921v13.618c26.347 11.249 44.702 37.301 44.702 67.497 0 40.557-33.156 73.418-73.714 73.418-40.853 0-73.714-32.86-73.714-73.418 0-30.196 18.354-56.247 44.702-67.497v-85.259l-39.077 38.781c-29.012 28.716-72.826-14.802-43.814-43.814l27.828-27.532c8.289-8.881 16.282-22.203 21.611-37.893l1.184-3.552c15.098-50.327 59.504-87.332 112.495-87.332 65.721 0 118.12 56.84 118.12 125.521v52.399c-0.592 15.986-13.618 29.012-29.9 29.012zM329.788 299.24c-15.986 0-29.012-13.026-29.012-29.012v-27.236c-6.809 7.105-11.249 16.874-11.249 27.532 0 21.907 17.762 39.965 40.261 39.965s40.261-18.058 40.261-39.965c0-10.657-4.145-20.427-11.249-27.532v27.236c0 15.986-13.026 29.012-29.012 29.012zM267.027 270.524c0 34.341 28.124 62.168 62.76 62.168s62.76-27.828 62.76-62.168c0-23.979-13.618-44.702-33.452-55.063v13.026c13.618 9.177 22.499 24.571 22.499 42.038 0 28.124-22.795 50.919-51.511 50.919s-51.807-22.795-51.807-50.919c0-17.466 8.881-32.86 22.203-42.038v-13.026c-19.835 10.361-33.452 31.38-33.452 55.063z" />
<glyph unicode="&#xe91d;" horiz-adv-x="931" d="M446.131 128.722c2.96 0 5.329 2.368 5.329 5.329 0 9.769 7.993 17.762 18.058 17.762s18.058-7.993 18.058-17.762v-52.103c0-63.352-47.958-114.271-106.87-114.271-47.662 0-87.924 33.452-101.838 79.339l-1.184 3.849c-5.921 16.874-14.506 31.676-23.979 41.742l-28.124 27.828c-7.697 7.697-7.697 20.131 0 28.124 7.697 7.697 20.427 7.697 28.124 0l48.846-48.55c0.888-0.888 2.368-1.48 3.849-1.48 2.96 0 5.329 2.368 5.329 5.329v166.374c0 9.769 7.993 17.762 18.058 17.762s18.058-7.993 18.058-17.762v-103.91c0-2.96 2.368-5.329 5.329-5.329s5.329 2.368 5.329 5.329c0 9.769 7.993 17.762 18.058 17.762s18.058-7.993 18.058-17.762v-15.098c0-2.96 2.368-5.329 5.329-5.329s5.329 2.368 5.329 5.329c0 9.769 7.993 17.762 18.058 17.762s18.058-7.993 18.058-17.762v-16.874c-0.592-3.256 1.776-5.625 4.737-5.625z" />
<glyph unicode="&#xe91e;" horiz-adv-x="931" d="M912.097 447.852c0-246.718-200.005-446.723-446.723-446.723s-446.723 200.005-446.723 446.723c0 246.718 200.005 446.723 446.723 446.723s446.723-200.005 446.723-446.723z" />
<glyph unicode="&#xe91f;" horiz-adv-x="931" d="M647.734 402.854h-80.819c-11.249 0-13.914 3.256-13.914 11.842v44.998c0 1.48 1.184 2.664 2.664 2.96h46.774c1.48 0 3.256-0.888 4.145-2.072l42.038-55.359c1.184-1.184 0.592-2.368-0.888-2.368zM227.95 403.15h-18.65c-1.48 0-2.96 1.184-2.96 2.96v83.779c0 1.48 1.184 2.96 2.96 2.96h18.65c45.886 0 70.161-18.947 70.161-44.702 0-26.051-24.571-44.998-70.161-44.998zM770.886 474.199h-13.322c-2.368 0-4.441-2.368-4.441-2.368l-50.919-66.905c-0.888-1.184-2.368-1.184-3.256 0l-47.070 66.609c0 0-1.776 2.368-5.033 2.368h-90.588c-1.48 0-2.96 1.184-2.96 2.96v21.907c0 3.256-2.664 5.625-5.625 5.625h-138.546c-21.611-0.592-30.788-2.96-40.557-8.585-9.177-5.329-13.618-12.138-13.618-20.131 0-8.585 7.105-17.17 21.019-25.459 3.552-2.072 16.578-8.289 38.781-18.65 13.914-6.513 21.611-11.842 21.019-17.17-0.888-8.585-8.585-11.249-26.94-11.249h-83.779c-2.072 0-3.552 0.296-3.552 2.072 0 0.888 0.592 1.48 1.48 2.072v0c18.65 11.249 24.867 26.644 24.867 40.261 0 25.755-21.611 57.136-108.35 57.136h-75.49c-3.256 0-5.625-2.664-5.625-5.625v-102.726c0-3.256 2.664-5.625 5.625-5.625h75.194c2.96 0 5.625 0 8.289 0h188.281c17.17 0 30.492 2.96 40.261 8.585 8.881 5.329 13.322 11.842 13.322 20.131 0 8.585-7.105 16.874-21.019 25.459-3.552 2.072-16.578 8.585-38.781 18.947-13.914 6.513-21.019 11.842-21.019 15.69 0 8.585 9.177 12.73 27.236 12.73h63.648c1.48 0 2.96-1.184 2.96-2.96v-74.602c0-10.953 7.105-23.683 29.012-23.683h174.959c4.145 0 6.217 2.664 6.217 2.664l59.8 78.746c0 0 1.48 1.776-1.48 1.776z" />
<glyph unicode="&#xe920;" glyph-name="cbz_pay" horiz-adv-x="931" d="M39.077 250.098v395.212c0 74.602 38.189 112.495 113.975 112.495h624.939c76.082 0 113.975-37.597 113.975-112.495v-395.212c0-74.602-37.597-112.199-113.975-112.199h-624.939c-75.786 0.296-113.975 37.597-113.975 112.199zM97.693 613.338h735.954v28.716c0 37.597-20.723 57.432-56.247 57.432h-623.459c-36.413 0-56.247-19.539-56.247-57.432v-28.716zM777.103 196.515c35.525 0 56.247 19.243 56.247 56.84v277.685h-735.658v-277.685c0-37.597 19.835-56.84 56.247-56.84h623.163zM166.374 299.832v67.201c0 20.723 14.21 34.933 35.525 34.933h88.812c21.315 0 35.525-14.21 35.525-34.933v-67.201c0-20.427-14.21-34.933-35.525-34.933h-88.812c-21.315 0.296-35.525 14.802-35.525 34.933z" />
<glyph unicode="&#xe921;" horiz-adv-x="931" d="M912.097 447.852c0-246.718-200.005-446.723-446.723-446.723s-446.723 200.005-446.723 446.723c0 246.718 200.005 446.723 446.723 446.723s446.723-200.005 446.723-446.723z" />
<glyph unicode="&#xe922;" horiz-adv-x="931" d="M398.469 610.674c2.96 2.96 7.105 4.441 10.657 4.441 8.585 0 14.21-5.625 14.21-13.914 0-4.145-1.48-7.105-4.145-9.769l-34.341-33.452-29.604-25.459 36.709 1.48h213.148c8.289 0 14.21-5.921 14.21-14.21 0-8.585-5.921-14.21-14.21-14.21h-213.148l-36.709 1.48 29.604-25.755 34.341-33.156c2.664-2.664 4.145-5.921 4.145-9.769 0-8.289-5.625-14.21-14.21-14.21-3.552 0-7.697 1.776-10.657 4.737l-82.003 80.523c-6.217 5.921-6.513 15.098 0 21.315l82.003 79.931zM532.575 242.993c-2.96-2.664-7.105-4.441-10.657-4.441-8.585 0-13.914 5.625-13.914 13.914 0 4.145 1.184 7.401 3.849 10.065l34.341 33.156 29.604 25.755-36.709-1.48h-213.148c-8.289 0-14.21 5.921-14.21 14.21s5.921 14.21 14.21 14.21h213.148l36.709-1.48-29.604 25.755-34.341 33.452c-2.664 2.664-3.849 5.625-3.849 9.769 0 8.289 5.625 13.914 13.914 13.914 3.552 0 7.697-1.776 10.657-4.441l82.003-80.523c6.217-5.921 6.513-15.394 0-21.611l-82.003-80.227z" />
<glyph unicode="&#xe923;" glyph-name="cbz_transfer" horiz-adv-x="931" d="M300.48 901.384c7.105 7.105 17.17 10.953 26.051 10.953 20.723 0 34.933-14.21 34.933-34.637 0-10.361-3.552-17.762-10.361-24.275l-84.667-82.299-73.122-62.76 90.884 3.552h525.47c20.427 0 34.933-14.506 34.933-34.933 0-20.723-14.506-35.525-34.933-35.525h-525.47l-90.884 3.849 73.122-63.352 84.667-81.707c6.809-6.809 10.361-14.506 10.361-24.275 0-20.427-14.21-34.933-34.933-34.933-8.585 0-18.947 4.441-26.051 11.546l-202.491 198.346c-15.394 14.506-15.986 37.301 0 52.695l202.491 197.754zM630.86-5.384c-7.105-6.809-17.17-10.953-26.347-10.953-20.723 0-34.637 14.21-34.637 34.637 0 10.361 3.256 18.058 9.769 24.867l84.963 81.707 73.122 63.352-90.884-3.849h-525.47c-20.427 0-35.525 14.506-35.525 35.525 0 20.427 14.802 34.933 35.525 34.933h525.47l90.884-3.849-73.122 63.352-84.963 82.299c-6.809 6.217-9.769 14.21-9.769 24.275 0 20.427 13.618 34.637 34.637 34.637 9.177 0 19.243-4.441 26.347-10.953l202.491-198.346c15.394-14.802 15.69-37.893 0-52.991l-202.491-198.642z" />
<glyph unicode="&#xe925;" glyph-name="cbz_app-pin" horiz-adv-x="931" d="M195.386 568.044c0 1.776 0 3.256 0 4.737 0 31.676-0.296 63.056 0.592 94.733 0.888 44.998 13.026 87.036 35.821 125.521 37.597 63.944 92.66 105.982 164.302 125.817 33.748 9.473 68.089 11.249 102.726 7.105 41.149-5.033 79.339-18.947 113.975-41.742 38.485-25.163 68.681-58.024 90.588-98.285 14.802-27.236 24.571-56.247 29.012-86.74 2.072-14.506 2.96-29.012 2.96-43.518 0.592-27.532 0-55.063 0-82.595 0-1.48 0-2.96 0-4.737 2.072 0 3.552 0 5.033 0 15.69-0.296 31.38 0.888 47.070-2.072 29.308-5.921 53.287-20.131 71.938-43.518 14.21-18.058 22.499-38.485 25.163-61.28 0.592-5.329 0.592-10.657 0.592-15.69 0-118.12 0-236.239 0-354.359 0-32.268-10.361-60.688-32.268-84.667-18.65-20.131-42.038-32.564-69.273-36.709-7.401-1.184-15.098-1.48-22.499-1.48-197.458 0-395.212 0-592.671 0-34.045 0-63.352 11.249-87.628 34.637-15.394 15.098-25.755 33.156-31.38 54.175-2.96 11.249-4.145 22.499-4.145 34.045 0 118.12 0 236.239 0 354.359 0 33.748 11.249 63.352 34.933 87.332 18.354 18.65 40.853 30.492 66.609 33.748 14.21 1.776 28.716 1.184 43.222 1.776 1.776-0.592 3.256-0.592 5.329-0.592zM315.282 568.34c100.357 0 200.123 0 300.184 0 0 1.776 0 3.256 0 4.737 0 26.94 0 53.583 0 80.523 0 7.697-0.296 15.69-1.184 23.387-4.737 36.709-20.723 68.089-48.254 92.66-34.341 30.492-74.602 43.222-120.488 37.301-39.077-5.033-71.345-23.387-96.509-53.879-22.795-27.828-33.748-60.096-33.748-96.213 0-28.124 0-56.247 0-84.667 0-1.184 0-2.368 0-3.849z" />
<glyph unicode="&#xe926;" glyph-name="cbz_home" horiz-adv-x="931" d="M881.013 493.738l-94.437 79.339v148.020c0 15.69-10.065 25.755-25.755 25.755h-38.189c-15.394 0-25.755-10.065-25.755-25.755v-72.53l-187.985 158.085c-26.347 22.499-59.208 22.499-86.147 0l-372.417-312.914c-7.993-6.513-11.546-15.098-11.546-23.091 0-14.506 11.546-28.716 30.788-28.716 10.065 0 18.354 5.329 25.755 11.546l46.478 39.373v-341.037c0-50.031 29.604-79.042 80.819-79.042h139.731v239.496c0 16.578 10.657 27.236 27.532 27.236h151.572c16.578 0 27.236-10.657 27.236-27.236v-239.496h137.658c50.623 0 80.523 29.012 80.523 79.042v343.406l49.735-41.742c7.105-6.217 15.394-11.546 25.459-11.546 16.874 0 30.492 10.361 30.492 27.532-0.592 10.657-4.145 17.762-11.546 24.275z" />
</font>
</defs>
</svg>
