<?xml version="1.0" encoding="utf-8"?>
<!-- Generator: Adobe Illustrator 26.3.1, SVG Export Plug-In . SVG Version: 6.00 Build 0)  -->
<svg version="1.1" id="Layer_1" xmlns="http://www.w3.org/2000/svg" xmlns:xlink="http://www.w3.org/1999/xlink" x="0px" y="0px"
	 viewBox="0 0 314.5 345.9" style="enable-background:new 0 0 314.5 345.9;" xml:space="preserve">
<style type="text/css">
	.st0{fill:#FFFFFF;}
	.st1{fill:#FF002B;}
	.st2{fill:#0C284C;}
	.st3{fill:#FF0000;}
	.st4{fill:#C1272D;}
	.st5{fill:#EA0029;}
	.st6{fill:#F4EDF0;}
	.st7{clip-path:url(#SVGID_00000093160663806645217150000005801064349318881922_);}
	.st8{fill:#EDF1F7;}
	.st9{fill:#0090D5;}
</style>
<path class="st6" d="M157.1,27.1C77.4,27.1,11.4,93.2,11.4,173c0,79.6,66.2,145.9,145.9,145.9c79.8,0,145.9-66.2,145.9-145.9
	C303.1,93.2,236.9,27.1,157.1,27.1z M90.5,152.1c11.3,0,20.7,9.3,20.7,20.7c0,11.6-9.3,20.9-20.7,20.9c-11.6,0-20.9-9.3-20.9-20.9
	C69.6,161.4,78.9,152.1,90.5,152.1z M136.2,172.8c0-11.4,9.4-20.7,20.9-20.7c11.4,0,20.9,9.3,20.9,20.7c0,11.6-9.4,20.9-20.9,20.9
	C145.7,193.7,136.2,184.4,136.2,172.8z M223.9,193.7c-11.6,0-20.9-9.3-20.9-20.9c0-11.4,9.3-20.7,20.9-20.7
	c11.4,0,20.7,9.3,20.7,20.7C244.6,184.4,235.3,193.7,223.9,193.7z"/>
</svg>
