<?xml version="1.0" encoding="utf-8"?>
<!-- Generator: Adobe Illustrator 26.3.1, SVG Export Plug-In . SVG Version: 6.00 Build 0)  -->
<svg version="1.1" id="Layer_1" xmlns="http://www.w3.org/2000/svg" xmlns:xlink="http://www.w3.org/1999/xlink" x="0px" y="0px"
	 viewBox="0 0 314.5 345.9" style="enable-background:new 0 0 314.5 345.9;" xml:space="preserve">
<style type="text/css">
	.st0{fill:#FFFFFF;}
	.st1{fill:#FF002B;}
	.st2{fill:#0C284C;}
	.st3{fill:#FF0000;}
	.st4{fill:#C1272D;}
	.st5{fill:#EA0029;}
	.st6{fill:#F4EDF0;}
	.st7{clip-path:url(#SVGID_00000026842294084244810310000012882825602078475157_);}
	.st8{fill:#EDF1F7;}
	.st9{fill:#0090D5;}
</style>
<g>
	<path class="st6" d="M215.2,332c-2.5,2.3-6.1,3.9-9.2,3.9c-7.3,0-12.1-5-12.1-12.1c0-3.6,1.1-6.3,3.5-8.7l29.8-28.7l25.7-22.2
		l-31.9,1.4H36.5c-7.2,0-12.4-5.1-12.4-12.4c0-7.2,5.2-12.3,12.4-12.3h184.3l31.9,1.4L227.1,220l-29.8-28.8c-2.3-2.2-3.5-5-3.5-8.6
		c0-7.2,4.8-12.1,12.1-12.1c3.2,0,6.8,1.5,9.2,3.9l71,69.5c5.4,5.2,5.5,13.2,0,18.6L215.2,332z M99.3,13.9c2.5-2.5,6.1-3.9,9.1-3.9
		c7.3,0,12.3,5,12.3,12.1c0,3.6-1.2,6.2-3.6,8.6L87.4,59.5L61.8,81.6l31.9-1.2H278c7.2,0,12.3,5.1,12.3,12.3
		c0,7.3-5.1,12.4-12.3,12.4H93.7l-31.9-1.4l25.7,22.2l29.7,28.7c2.3,2.3,3.6,5.1,3.6,8.6c0,7.2-5,12.3-12.3,12.3c-3,0-6.6-1.5-9.1-4
		l-71.1-69.5c-5.4-5.1-5.7-13.1,0-18.5L99.3,13.9z"/>
</g>
</svg>
