<?xml version="1.0" encoding="utf-8"?>
<!-- Generator: Adobe Illustrator 26.3.1, SVG Export Plug-In . SVG Version: 6.00 Build 0)  -->
<svg version="1.1" id="Layer_1" xmlns="http://www.w3.org/2000/svg" xmlns:xlink="http://www.w3.org/1999/xlink" x="0px" y="0px"
	 viewBox="0 0 314.5 345.9" style="enable-background:new 0 0 314.5 345.9;" xml:space="preserve">
<style type="text/css">
	.st0{fill:#FFFFFF;}
	.st1{fill:#FF002B;}
	.st2{fill:#0C284C;}
	.st3{fill:#FF0000;}
	.st4{fill:#C1272D;}
	.st5{fill:#EA0029;}
	.st6{fill:#F4EDF0;}
	.st7{clip-path:url(#SVGID_00000016798211611652776400000010972834753338520751_);}
	.st8{fill:#EDF1F7;}
	.st9{fill:#0090D5;}
</style>
<g>
	<path class="st6" d="M262.8,88.3c0-0.3,0-0.7,0-1c0-9.7-0.1-19.4,0-29.1c0.1-8,3.7-13.9,10.8-17.5c7.9-4,17.7-1.7,23.3,5.2
		c2.9,3.7,4.3,7.8,4.3,12.5c0,25.3,0,50.6,0,75.9c0,2.5-0.3,4.9-1.3,7.3c-2.7,6.7-7.7,10.8-14.8,12.1c-1.3,0.2-2.6,0.3-3.8,0.3
		c-25,0-50.1,0-75.1,0c-3.3,0-6.4-0.6-9.4-2c-7.4-3.6-11.7-12.1-10.3-20.2c1.5-8.6,8.1-14.9,16.7-16c1-0.1,2.1-0.1,3.2-0.1
		c9.3,0,18.5,0,27.8,0c0.4,0,0.8,0,1.4,0c-0.3-0.4-0.5-0.6-0.7-0.8c-3.8-3.8-7.6-7.7-11.6-11.5c-6.4-6.1-13.6-11.2-21.4-15.3
		c-8.2-4.3-16.8-7.3-25.8-9c-8.4-1.6-16.9-2.2-25.5-1.5c-13.2,1-25.6,4.5-37.4,10.6C104,92.5,96.1,98.4,89,105.5
		c-7.4,7.5-13.5,16-18,25.4c-1.7,3.6-3,7.3-4.6,10.9c-2.8,6.5-7.7,10.4-14.6,11.6c-9.1,1.6-18.8-3.8-21.6-14
		c-1.1-3.9-0.8-7.8,0.5-11.6c5.7-16,14.1-30.5,25.3-43.3c9.5-10.9,20.5-20.1,33-27.5c11-6.5,22.7-11.4,35.1-14.5
		c8.2-2.1,16.5-3.4,25-3.9c7.4-0.4,14.8-0.3,22.2,0.5c14.1,1.5,27.6,5.1,40.6,10.9c12.2,5.4,23.4,12.4,33.3,21.3
		c5.8,5.1,11.1,10.7,16.6,16.1c0.3,0.2,0.5,0.5,0.7,0.8C262.6,88.4,262.7,88.3,262.8,88.3z"/>
	<path class="st6" d="M51.7,257.8c0,0.3,0,0.7,0,1c0,9.6,0,19.2,0,28.7c0,3.9-0.8,7.5-3,10.8c-4,6-9.6,9.2-16.9,8.9
		c-7.8-0.3-13.4-4.2-16.8-11.2c-1.2-2.5-1.7-5.1-1.7-7.8c0-25.8-0.1-51.7,0.1-77.5c0.1-10.4,8.7-18,18-18.4c1.4-0.1,2.9-0.1,4.3-0.1
		c24.2,0,48.4,0,72.6,0c3.4,0,6.6,0.6,9.7,2.1c7.2,3.6,11.5,12.1,10.1,20c-1.4,8.1-6.9,14-14.9,15.8c-1.6,0.3-3.2,0.4-4.8,0.4
		c-9.3,0-18.6,0-28,0c-0.4,0-0.8,0-1.3,0c0.1,0.2,0.2,0.4,0.2,0.4c4.8,4.7,9.4,9.6,14.3,14c11.4,10.2,24.6,17.1,39.5,20.9
		c10.2,2.6,20.5,3.6,31,2.8c13.2-1,25.6-4.5,37.4-10.6c8.9-4.6,16.8-10.5,23.9-17.6c7.4-7.5,13.5-15.9,18-25.4
		c1.7-3.5,3-7.1,4.5-10.7c3.6-8.7,12.2-13.4,21.5-11.8c10.1,1.8,17.1,12,15.2,21.9c-0.8,4.1-2.5,7.8-4.1,11.6
		c-7.4,17.2-18,32.1-31.6,44.9c-12.1,11.3-25.9,20.2-41.2,26.4c-9.6,3.9-19.6,6.6-29.8,8.2c-10.1,1.6-20.3,1.9-30.5,1.2
		c-14-1-27.5-4.1-40.6-9.4c-12.2-4.9-23.4-11.5-33.7-19.8c-5.2-4.2-10.1-8.9-14.8-13.6c-2.1-2.1-4.3-4.3-6.4-6.4
		C51.9,257.7,51.8,257.7,51.7,257.8z"/>
</g>
</svg>
