<?xml version="1.0" encoding="utf-8"?>
<!-- Generator: Adobe Illustrator 26.3.1, SVG Export Plug-In . SVG Version: 6.00 Build 0)  -->
<svg version="1.1" id="Layer_1" xmlns="http://www.w3.org/2000/svg" xmlns:xlink="http://www.w3.org/1999/xlink" x="0px" y="0px"
	 viewBox="0 0 834.1 345.9" style="enable-background:new 0 0 834.1 345.9;" xml:space="preserve">
<style type="text/css">
	.st0{fill:#FFFFFF;}
	.st1{fill:#FF002B;}
	.st2{fill:#0C284C;}
	.st3{fill:#FF0000;}
	.st4{fill:#C1272D;}
	.st5{fill:#EA0029;}
	.st6{fill:#F4EDF0;}
	.st7{clip-path:url(#SVGID_00000056420691441423193520000001716409031539870101_);}
	.st8{fill:#EDF1F7;}
	.st9{fill:#0090D5;}
</style>
<g>
	<path class="st5" d="M331,173c0-85.9-69.6-155.5-155.5-155.5C89.7,17.5,20.1,87.1,20.1,173s69.6,155.5,155.5,155.5
		C261.4,328.4,331,258.8,331,173"/>
	<g>
		<polygon class="st0" points="416.6,126.3 416.6,218.7 401.4,218.7 401.4,180.2 361.8,180.2 361.8,218.7 346.7,218.7 346.7,126.3 
			361.8,126.3 361.8,165.6 401.4,165.6 401.4,126.3 		"/>
		<path class="st0" d="M424.3,185.7c0-19.7,15.6-34.7,34.9-34.7c19.4,0,34.9,15,34.9,34.7c0,19.5-15.4,34.7-34.9,34.7
			C439.9,220.4,424.3,205.2,424.3,185.7 M479.8,185.7c0-12-9-20.9-20.6-20.9c-11.6,0-20.6,8.8-20.6,20.9c0,12,9,20.9,20.6,20.9
			C470.8,206.6,479.8,197.7,479.8,185.7"/>
		<rect x="501.7" y="126.3" class="st0" width="14.3" height="92.4"/>
		<path class="st0" d="M593.4,126.3v92.4h-14.3v-9.5c-5,7-12.8,11.2-23.1,11.2c-18,0-32.9-15.2-32.9-34.7
			c0-19.7,14.9-34.7,32.9-34.7c10.3,0,18.1,4.2,23.1,11.1v-35.8H593.4z M579.2,185.7c0-12.3-9-21.1-20.9-21.1
			c-11.9,0-20.9,8.8-20.9,21.1s9,21.1,20.9,21.1C570.2,206.8,579.2,198,579.2,185.7"/>
		<path class="st0" d="M599,135.4c0-5,4.1-9.1,9.1-9.1c5,0,9.1,4.1,9.1,9.1c0,4.9-4.1,9.1-9.1,9.1C603.1,144.5,599,140.3,599,135.4
			 M601,152.7h14.3v66H601V152.7z"/>
		<path class="st0" d="M683,178.2v40.5h-14.3v-39.1c0-10-5.8-15.3-14.8-15.3c-9.4,0-16.8,5.5-16.8,19v35.4H623v-66h14.3v8.4
			c4.4-6.9,11.5-10.2,20.5-10.2C672.5,151,683,161,683,178.2"/>
		<path class="st0" d="M760.3,152.7v63c0,21.3-16.6,31.2-33.9,31.2c-14.5,0-25.7-5.4-31.3-16l12.3-7.1c2.9,5.7,7.8,10.2,19.3,10.2
			c12.3,0,19.7-6.7,19.7-18.2v-8.1c-5,7.1-12.8,11.5-23,11.5c-18.6,0-33.3-15.2-33.3-34.1s14.7-34.1,33.3-34.1
			c10.2,0,18,4.4,23,11.5v-9.8H760.3z M746.3,185c0-11.9-9-20.7-21-20.7c-12,0-21,8.8-21,20.7c0,11.9,9,20.7,21,20.7
			C737.3,205.8,746.3,196.9,746.3,185"/>
		<path class="st0" d="M818.5,200.1c0,13.2-11.5,20.3-25.7,20.3c-13.2,0-22.7-5.9-26.9-15.4l12.3-7.1c2.1,5.9,7.4,9.5,14.7,9.5
			c6.3,0,11.2-2.1,11.2-7.4c0-11.7-35.5-5.1-35.5-28.8c0-12.4,10.7-20.2,24.2-20.2c10.8,0,19.8,5,24.4,13.7l-12,6.7
			c-2.4-5.1-7-7.5-12.4-7.5c-5.1,0-9.6,2.2-9.6,7C783,182.9,818.5,175.7,818.5,200.1"/>
	</g>
	<g>
		<path class="st0" d="M32.4,172.8c0-27.4,20.8-48.6,48.7-48.6c17.8,0,33.7,9.4,41.6,23.5l-24.1,14c-3.1-6.4-9.8-10.3-17.8-10.3
			c-12,0-20.8,8.6-20.8,21.3s8.8,21.3,20.8,21.3c8.1,0,14.9-3.9,17.8-10.3l24.1,13.8c-7.9,14.3-23.5,23.7-41.6,23.7
			C53.2,221.3,32.4,200.2,32.4,172.8"/>
		<path class="st0" d="M230.5,172.8c0,27.4-19.9,48.6-44,48.6c-12.3,0-21.3-4.2-27.4-11.2v8.6h-27.6V90h27.6v45.4
			c6.1-7,15.1-11.2,27.4-11.2C210.6,124.2,230.5,145.4,230.5,172.8 M203.2,172.8c0-13.8-9.3-22.4-22-22.4c-12.8,0-22,8.6-22,22.4
			c0,13.8,9.3,22.4,22,22.4C193.9,195.2,203.2,186.6,203.2,172.8"/>
		<polygon class="st0" points="312.1,192.9 312.1,218.8 238.1,218.8 238.1,192.9 274.5,152.2 238.1,152.2 238.1,126.3 312.1,126.3 
			312.1,152.2 275.3,192.9 		"/>
	</g>
</g>
</svg>
