<?xml version="1.0" encoding="utf-8"?>
<!-- Generator: Adobe Illustrator 26.3.1, SVG Export Plug-In . SVG Version: 6.00 Build 0)  -->
<svg version="1.1" id="Layer_1" xmlns="http://www.w3.org/2000/svg" xmlns:xlink="http://www.w3.org/1999/xlink" x="0px" y="0px"
	 viewBox="0 0 314.5 345.9" style="enable-background:new 0 0 314.5 345.9;" xml:space="preserve">
<style type="text/css">
	.st0{fill:#FFFFFF;}
	.st1{fill:#FF002B;}
	.st2{fill:#0C284C;}
	.st3{fill:#FF0000;}
	.st4{fill:#C1272D;}
	.st5{fill:#EA0029;}
	.st6{fill:#F4EDF0;}
	.st7{clip-path:url(#SVGID_00000120556850557495352310000012684808101714481067_);}
	.st8{fill:#EDF1F7;}
	.st9{fill:#0090D5;}
</style>
<g>
	<path class="st6" d="M122.9,300.5l-5.9-25.2l-4.3-1.5l-21.8,13.4c-8.7,5.5-19,4.2-26.4-3.2l-18.7-18.7c-7.4-7.4-8.9-17.6-3.2-26.2
		l13.6-21.8l-1.5-4l-25.2-5.9c-9.8-2.4-16.3-10.5-16.3-20.7V160c0-10.2,6.3-18.3,16.3-20.7l24.9-6.1l1.6-4.3l-13.6-21.8
		c-5.6-8.6-4.2-18.7,3.2-26.2l18.7-18.8c7.3-7.3,17.5-8.6,26.2-3.2l21.8,13.5l4.6-1.8l5.9-25.1c2.4-10,10.4-16.3,20.7-16.3h27.2
		c10.4,0,18.3,6.3,20.7,16.3l5.8,25.1l4.6,1.8l21.9-13.5c8.8-5.4,18.8-4,26.1,3.2L268.7,81c7.4,7.5,8.7,17.6,3.2,26.2L258.2,129
		l1.8,4.3l24.9,6.1c9.9,2.4,16.3,10.5,16.3,20.7v26.6c0,10.2-6.5,18.3-16.3,20.7l-25.2,5.9l-1.6,4l13.7,21.8
		c5.5,8.6,4.2,18.8-3.2,26.2l-18.8,18.7c-7.4,7.4-17.5,8.7-26.2,3.2l-21.9-13.4l-4.3,1.5l-5.8,25.2c-2.4,9.9-10.3,16.3-20.7,16.3
		h-27.2C133.3,316.7,125.4,310.4,122.9,300.5z M168.7,295.8c2.3,0,3.5-0.9,3.8-3.1l8.2-33.4c8.2-2,15.7-5.2,21.5-8.9l29.3,18
		c1.8,1.2,3.4,0.9,5.1-0.7l15.7-15.9c1.6-1.5,1.6-3.1,0.5-5l-18-29.1c3.2-5.6,6.6-13.3,8.7-21.5l33.5-7.9c2-0.4,3.1-1.6,3.1-3.9
		v-22.5c0-2.4-0.9-3.5-3.1-3.9l-33.4-8.1c-2.2-8.7-6-16.7-8.6-21.7L253,99.4c1.2-2,1.2-3.6-0.4-5.2l-15.9-15.6
		c-1.7-1.6-3.1-1.9-5.2-0.7l-29.2,17.8c-6-3.2-13.3-6.6-21.7-8.7l-8.2-33.6c-0.3-2.2-1.5-3.1-3.8-3.1h-22.9c-2.3,0-3.5,0.9-3.9,3.1
		L134,86.6c-8.1,2.3-16.3,5.6-22.1,8.9L82.9,77.9c-2-1.2-3.5-0.9-5.1,0.7l-16,15.6c-1.5,1.6-1.6,3.2-0.4,5.2l17.9,29.1
		c-2.4,5-6.5,12.9-8.6,21.7l-33.2,8.1c-2.3,0.4-3.1,1.5-3.1,3.9v22.5c0,2.3,0.9,3.5,3.1,3.9l33.4,7.9c2.2,8.2,5.7,15.9,8.7,21.5
		l-18,29.1c-1.1,1.9-0.9,3.5,0.5,5l15.9,15.9c1.6,1.6,3.4,1.9,5,0.7l29.3-18c5.8,3.6,13.5,6.9,21.7,8.9l8.1,33.4
		c0.4,2.2,1.6,3.1,3.9,3.1H168.7z M105.9,173c0-28,23.3-51.1,51.4-51.1s51.2,23.1,51.2,51.1c0,28.2-23.1,51.4-51.2,51.4
		C129,224.3,105.9,201.1,105.9,173z M187.4,173c0-16.5-13.7-30.3-30.1-30.3c-16.7,0-30.4,13.7-30.4,30.3c0,16.8,13.7,30.5,30.4,30.5
		C173.6,203.5,187.4,189.6,187.4,173z"/>
</g>
</svg>
