<?xml version="1.0" encoding="utf-8"?>
<!-- Generator: Adobe Illustrator 26.3.1, SVG Export Plug-In . SVG Version: 6.00 Build 0)  -->
<svg version="1.1" id="Layer_1" xmlns="http://www.w3.org/2000/svg" xmlns:xlink="http://www.w3.org/1999/xlink" x="0px" y="0px"
	 viewBox="0 0 314.5 345.9" style="enable-background:new 0 0 314.5 345.9;" xml:space="preserve">
<style type="text/css">
	.st0{fill:#FFFFFF;}
	.st1{fill:#FF002B;}
	.st2{fill:#0C284C;}
	.st3{fill:#FF0000;}
	.st4{fill:#C1272D;}
	.st5{fill:#EA0029;}
	.st6{fill:#F4EDF0;}
	.st7{clip-path:url(#SVGID_00000154411968533793861520000007358461878204388795_);}
	.st8{fill:#EDF1F7;}
	.st9{fill:#0090D5;}
</style>
<g>
	<path class="st0" d="M308.1,157.9C308.1,74.5,240.6,7,157.2,7C73.9,7,6.3,74.5,6.3,157.9c0,83.3,67.6,150.9,150.9,150.9
		C240.6,308.8,308.1,241.2,308.1,157.9"/>
	<g>
		<path class="st1" d="M18.3,157.7c0-26.6,20.2-47.1,47.3-47.1c17.3,0,32.7,9.1,40.3,22.9L82.6,147c-3-6.2-9.5-10-17.3-10
			c-11.6,0-20.2,8.4-20.2,20.7c0,12.3,8.6,20.7,20.2,20.7c7.9,0,14.5-3.7,17.3-10l23.4,13.4c-7.7,13.9-22.9,23-40.3,23
			C38.5,204.8,18.3,184.3,18.3,157.7"/>
		<path class="st1" d="M184,157.7c0-13.4-9-21.8-21.4-21.8c-12.4,0-21.4,8.4-21.4,21.8c0,13.4,9,21.8,21.4,21.8
			C175.1,179.5,184,171.1,184,157.7 M210.6,157.7c0,26.6-19.3,47.1-42.7,47.1c-12,0-20.7-4.1-26.6-10.9v8.4h-26.8v-125h26.8v44.1
			c5.9-6.8,14.6-10.9,26.6-10.9C191.3,110.6,210.6,131.1,210.6,157.7"/>
		<polygon class="st1" points="289.8,177.2 289.8,202.3 218,202.3 218,177.2 253.3,137.7 218,137.7 218,112.6 289.8,112.6 
			289.8,137.7 254,177.2 		"/>
		<path class="st1" d="M175.8,236.5c0,9.5-7.7,17.2-17.3,17.2c-9.5,0-17.3-7.7-17.3-17.2v-23.3h9.7v23.3c0,4.1,3.4,7.5,7.5,7.5
			c4.2,0,7.5-3.4,7.5-7.5v-23.3h9.7V236.5z"/>
		<polygon class="st1" points="50,222.9 50,213.2 84.6,213.2 84.6,222.9 72.2,222.9 72.2,252.6 62.4,252.6 62.4,222.9 		"/>
		<polygon class="st1" points="235.3,236.8 235.3,252.6 225.5,252.6 225.5,213.2 235.3,213.2 235.3,227.1 250.4,227.1 250.4,213.2 
			260.1,213.2 260.1,252.6 250.4,252.6 250.4,236.8 		"/>
		<path class="st1" d="M202,253.7c-11.6,0-21-9.3-21-20.8c0-11.5,9.4-20.8,21-20.8c7.9,0,14.1,4,18.2,10.5l-8.3,5.1
			c-2.3-3.6-5.5-5.9-10-5.9c-6.2,0-11.2,5-11.2,11.1c0,6.1,5,11.1,11.2,11.1c4.5,0,7.7-2.3,10-5.9l8.3,5.1
			C216.2,249.7,209.9,253.7,202,253.7z"/>
		<path class="st1" d="M158.6,269.2c-2.3,0-4.4,0.8-6.1,2.1c-0.9-4.5-4.9-7.8-9.6-7.8c-2.4,0-4.5,0.8-6.2,2.2
			c-1.1-4.2-4.9-7.3-9.5-7.3c-2.2,0-4.3,0.7-5.9,2v-4.6c8.9-3.8,15.1-12.6,15.1-22.8c0-13.7-11.2-24.8-24.9-24.8
			c-13.8,0-24.9,11.1-24.9,24.8c0,10.2,6.2,19,15.1,22.8l0,28.8l-13.2-13.1c-9.8-9.7-24.6,5-14.8,14.8l9.4,9.3
			c2.8,3,5.5,7.5,7.3,12.8l0.4,1.2c5.1,17,20.1,29.5,38,29.5c22.2,0,39.9-19.2,39.9-42.4V279C168.5,273.6,164.1,269.2,158.6,269.2z
			 M111.4,223.2c-5.4,0-9.8,4.4-9.8,9.8l0,9.2c-2.3-2.4-3.8-5.7-3.8-9.3c0-7.4,6-13.5,13.6-13.5c7.6,0,13.6,6.1,13.6,13.5
			c0,3.6-1.4,6.9-3.8,9.3V233C121.2,227.6,116.8,223.2,111.4,223.2z M90.2,232.9c0-11.6,9.5-21,21.2-21s21.2,9.4,21.2,21
			c0,8.1-4.6,15.1-11.3,18.6v-4.4c4.6-3.1,7.6-8.3,7.6-14.2c0-9.5-7.7-17.2-17.4-17.2S94,223.4,94,232.9c0,5.9,3,11.1,7.5,14.2
			l0,4.4C94.8,248,90.2,240.9,90.2,232.9z"/>
	</g>
	<path class="st2" d="M150.7,280.8c1,0,1.8-0.8,1.8-1.8c0-3.3,2.7-6,6.1-6c3.4,0,6.1,2.7,6.1,6v17.6c0,21.4-16.2,38.6-36.1,38.6
		c-16.1,0-29.7-11.3-34.4-26.8l-0.4-1.3c-2-5.7-4.9-10.7-8.1-14.1l-9.5-9.4c-2.6-2.6-2.6-6.8,0-9.5c2.6-2.6,6.9-2.6,9.5,0l16.5,16.4
		c0.3,0.3,0.8,0.5,1.3,0.5c1,0,1.8-0.8,1.8-1.8l0-56.2c0-3.3,2.7-6,6.1-6c3.4,0,6.1,2.7,6.1,6v35.1c0,1,0.8,1.8,1.8,1.8
		s1.8-0.8,1.8-1.8c0-3.3,2.7-6,6.1-6c3.4,0,6.1,2.7,6.1,6v5.1c0,1,0.8,1.8,1.8,1.8c1,0,1.8-0.8,1.8-1.8c0-3.3,2.7-6,6.1-6
		c3.4,0,6.1,2.7,6.1,6v5.7C148.9,280,149.7,280.8,150.7,280.8z"/>
</g>
</svg>
