<?xml version="1.0" encoding="utf-8"?>
<!-- Generator: Adobe Illustrator 26.3.1, SVG Export Plug-In . SVG Version: 6.00 Build 0)  -->
<svg version="1.1" id="Layer_1" xmlns="http://www.w3.org/2000/svg" xmlns:xlink="http://www.w3.org/1999/xlink" x="0px" y="0px"
	 viewBox="0 0 314.5 345.9" style="enable-background:new 0 0 314.5 345.9;" xml:space="preserve">
<style type="text/css">
	.st0{fill:#FFFFFF;}
	.st1{fill:#FF002B;}
	.st2{fill:#0C284C;}
	.st3{fill:#FF0000;}
	.st4{fill:#C1272D;}
	.st5{fill:#EA0029;}
	.st6{fill:#F4EDF0;}
	.st7{clip-path:url(#SVGID_00000180335416450488667460000016869242491585967519_);}
	.st8{fill:#EDF1F7;}
	.st9{fill:#0090D5;}
</style>
<g>
	<circle class="st9" cx="157.2" cy="173" r="150.9"/>
	<path class="st8" d="M218.8,188.2h-27.3c-3.8,0-4.7-1.1-4.7-4V169c0-0.5,0.4-0.9,0.9-1h15.8c0.5,0,1.1,0.3,1.4,0.7l14.2,18.7
		C219.5,187.8,219.3,188.2,218.8,188.2 M77,188.1h-6.3c-0.5,0-1-0.4-1-1v-28.3c0-0.5,0.4-1,1-1H77c15.5,0,23.7,6.4,23.7,15.1
		C100.7,181.7,92.4,188.1,77,188.1 M260.4,164.1h-4.5c-0.8,0-1.5,0.8-1.5,0.8l-17.2,22.6c-0.3,0.4-0.8,0.4-1.1,0l-15.9-22.5
		c0,0-0.6-0.8-1.7-0.8h-30.6c-0.5,0-1-0.4-1-1l0-7.4c0-1.1-0.9-1.9-1.9-1.9h-46.8c-7.3,0.2-10.4,1-13.7,2.9
		c-3.1,1.8-4.6,4.1-4.6,6.8c0,2.9,2.4,5.8,7.1,8.6c1.2,0.7,5.6,2.8,13.1,6.3c4.7,2.2,7.3,4,7.1,5.8c-0.3,2.9-2.9,3.8-9.1,3.8h-28.3
		c-0.7,0-1.2-0.1-1.2-0.7c0-0.3,0.2-0.5,0.5-0.7l0,0c6.3-3.8,8.4-9,8.4-13.6c0-8.7-7.3-19.3-36.6-19.3H55.4c-1.1,0-1.9,0.9-1.9,1.9
		v34.7c0,1.1,0.9,1.9,1.9,1.9h25.4c1,0,1.9,0,2.8,0h63.6c5.8,0,10.3-1,13.6-2.9c3-1.8,4.5-4,4.5-6.8c0-2.9-2.4-5.7-7.1-8.6
		c-1.2-0.7-5.6-2.9-13.1-6.4c-4.7-2.2-7.1-4-7.1-5.3c0-2.9,3.1-4.3,9.2-4.3h21.5c0.5,0,1,0.4,1,1l0,25.2c0,3.7,2.4,8,9.8,8h59.1
		c1.4,0,2.1-0.9,2.1-0.9l20.2-26.6C260.9,164.7,261.4,164.1,260.4,164.1"/>
</g>
</svg>
