<?xml version="1.0" encoding="utf-8"?>
<!-- Generator: Adobe Illustrator 26.3.1, SVG Export Plug-In . SVG Version: 6.00 Build 0)  -->
<svg version="1.1" id="Layer_1" xmlns="http://www.w3.org/2000/svg" xmlns:xlink="http://www.w3.org/1999/xlink" x="0px" y="0px"
	 viewBox="0 0 314.5 345.9" style="enable-background:new 0 0 314.5 345.9;" xml:space="preserve">
<style type="text/css">
	.st0{fill:#FFFFFF;}
	.st1{fill:#FF002B;}
	.st2{fill:#0C284C;}
	.st3{fill:#FF0000;}
	.st4{fill:#C1272D;}
	.st5{fill:#EA0029;}
	.st6{fill:#F4EDF0;}
	.st7{clip-path:url(#SVGID_00000176749759258281849070000013439105865427297670_);}
	.st8{fill:#EDF1F7;}
	.st9{fill:#0090D5;}
</style>
<g>
	<g>
		<path class="st5" d="M13.2,239.8V106.3c0-25.2,12.9-38,38.5-38h211.1c25.7,0,38.5,12.7,38.5,38v133.5c0,25.2-12.7,37.9-38.5,37.9
			H51.7C26.1,277.6,13.2,265,13.2,239.8z M33,117.1h248.6v-9.7c0-12.7-7-19.4-19-19.4H52c-12.3,0-19,6.6-19,19.4V117.1z
			 M262.5,257.9c12,0,19-6.5,19-19.2v-93.8H33v93.8c0,12.7,6.7,19.2,19,19.2H262.5z M56.2,223v-22.7c0-7,4.8-11.8,12-11.8h30
			c7.2,0,12,4.8,12,11.8V223c0,6.9-4.8,11.8-12,11.8h-30C61,234.7,56.2,229.8,56.2,223z"/>
	</g>
</g>
</svg>
