<?xml version="1.0" encoding="utf-8"?>
<!-- Generator: Adobe Illustrator 26.3.1, SVG Export Plug-In . SVG Version: 6.00 Build 0)  -->
<svg version="1.1" id="Layer_1" xmlns="http://www.w3.org/2000/svg" xmlns:xlink="http://www.w3.org/1999/xlink" x="0px" y="0px"
	 viewBox="0 0 314.5 345.9" style="enable-background:new 0 0 314.5 345.9;" xml:space="preserve">
<style type="text/css">
	.st0{fill:#FFFFFF;}
	.st1{fill:#FF002B;}
	.st2{fill:#0C284C;}
	.st3{fill:#FF0000;}
	.st4{fill:#C1272D;}
	.st5{fill:#EA0029;}
	.st6{fill:#F4EDF0;}
	.st7{clip-path:url(#SVGID_00000156552296121468418070000007898251929507340179_);}
	.st8{fill:#EDF1F7;}
	.st9{fill:#0090D5;}
</style>
<path class="st6" d="M297.6,157.5l-31.9-26.8v-50c0-5.3-3.4-8.7-8.7-8.7h-12.9c-5.2,0-8.7,3.4-8.7,8.7v24.5l-63.5-53.4
	c-8.9-7.6-20-7.6-29.1,0L17,157.5c-2.7,2.2-3.9,5.1-3.9,7.8c0,4.9,3.9,9.7,10.4,9.7c3.4,0,6.2-1.8,8.7-3.9l15.7-13.3v115.2
	c0,16.9,10,26.7,27.3,26.7h47.2v-41.5v-39.4c0-5.6,3.6-9.2,9.3-9.2h51.2c5.6,0,9.2,3.6,9.2,9.2v37.9v43h0.1h46.4
	c17.1,0,27.2-9.8,27.2-26.7V157l16.8,14.1c2.4,2.1,5.2,3.9,8.6,3.9c5.7,0,10.3-3.5,10.3-9.3C301.3,162.1,300.1,159.7,297.6,157.5z"
	/>
</svg>
