<?xml version="1.0" encoding="utf-8"?>
<!-- Generator: Adobe Illustrator 26.3.1, SVG Export Plug-In . SVG Version: 6.00 Build 0)  -->
<svg version="1.1" id="Layer_1" xmlns="http://www.w3.org/2000/svg" xmlns:xlink="http://www.w3.org/1999/xlink" x="0px" y="0px"
	 viewBox="0 0 314.5 345.9" style="enable-background:new 0 0 314.5 345.9;" xml:space="preserve">
<style type="text/css">
	.st0{fill:#FFFFFF;}
	.st1{fill:#FF002B;}
	.st2{fill:#0C284C;}
	.st3{fill:#FF0000;}
	.st4{fill:#C1272D;}
	.st5{fill:#EA0029;}
	.st6{fill:#F4EDF0;}
	.st7{clip-path:url(#SVGID_00000087378636910440470850000008862053172221983382_);}
	.st8{fill:#EDF1F7;}
	.st9{fill:#0090D5;}
</style>
<g>
	<g>
		<path class="st5" d="M101.5,19.8c2.4-2.4,5.8-3.7,8.8-3.7c7,0,11.8,4.8,11.8,11.7c0,3.5-1.2,6-3.5,8.2L90,63.8L65.3,85L96,83.8
			h177.5c6.9,0,11.8,4.9,11.8,11.8c0,7-4.9,12-11.8,12H96l-30.7-1.3L90,127.7l28.6,27.6c2.3,2.3,3.5,4.9,3.5,8.2
			c0,6.9-4.8,11.8-11.8,11.8c-2.9,0-6.4-1.5-8.8-3.9l-68.4-67c-5.2-4.9-5.4-12.6,0-17.8L101.5,19.8z M213.1,326.1
			c-2.4,2.3-5.8,3.7-8.9,3.7c-7,0-11.7-4.8-11.7-11.7c0-3.5,1.1-6.1,3.3-8.4l28.7-27.6l24.7-21.4l-30.7,1.3H41c-6.9,0-12-4.9-12-12
			c0-6.9,5-11.8,12-11.8h177.5l30.7,1.3l-24.7-21.4l-28.7-27.8c-2.3-2.1-3.3-4.8-3.3-8.2c0-6.9,4.6-11.7,11.7-11.7
			c3.1,0,6.5,1.5,8.9,3.7l68.4,67c5.2,5,5.3,12.8,0,17.9L213.1,326.1z"/>
	</g>
</g>
</svg>
