<?xml version="1.0" encoding="utf-8"?>
<!-- Generator: Adobe Illustrator 26.3.1, SVG Export Plug-In . SVG Version: 6.00 Build 0)  -->
<svg version="1.1" id="Layer_1" xmlns="http://www.w3.org/2000/svg" xmlns:xlink="http://www.w3.org/1999/xlink" x="0px" y="0px"
	 viewBox="0 0 314.5 345.9" style="enable-background:new 0 0 314.5 345.9;" xml:space="preserve">
<style type="text/css">
	.st0{fill:#FFFFFF;}
	.st1{fill:#FF002B;}
	.st2{fill:#0C284C;}
	.st3{fill:#FF0000;}
	.st4{fill:#C1272D;}
	.st5{fill:#EA0029;}
	.st6{fill:#F4EDF0;}
	.st7{clip-path:url(#SVGID_00000018915916498939728850000014863734717063991741_);}
	.st8{fill:#EDF1F7;}
	.st9{fill:#0090D5;}
</style>
<g>
	<path class="st4" d="M66,132.4c0-0.6,0-1.1,0-1.6c0-10.7-0.1-21.3,0.2-32c0.3-15.2,4.4-29.4,12.1-42.4
		c12.7-21.6,31.3-35.8,55.5-42.5c11.4-3.2,23-3.8,34.7-2.4c13.9,1.7,26.8,6.4,38.5,14.1c13,8.5,23.2,19.6,30.6,33.2
		c5,9.2,8.3,19,9.8,29.3c0.7,4.9,1,9.8,1,14.7c0.2,9.3,0,18.6,0,27.9c0,0.5,0,1,0,1.6c0.7,0,1.2,0,1.7,0c5.3,0.1,10.6-0.3,15.9,0.7
		c9.9,2,18,6.8,24.3,14.7c4.8,6.1,7.6,13,8.5,20.7c0.2,1.8,0.2,3.6,0.2,5.3c0,39.9,0,79.8,0,119.7c0,10.9-3.5,20.5-10.9,28.6
		c-6.3,6.8-14.2,11-23.4,12.4c-2.5,0.4-5.1,0.5-7.6,0.5c-66.7,0-133.5,0-200.2,0c-11.5,0-21.4-3.8-29.6-11.7
		c-5.2-5.1-8.7-11.2-10.6-18.3c-1-3.8-1.4-7.6-1.4-11.5c0-39.9,0-79.8,0-119.7c0-11.4,3.8-21.4,11.8-29.5
		c6.2-6.3,13.8-10.3,22.5-11.4c4.8-0.6,9.7-0.4,14.6-0.6C64.8,132.4,65.3,132.4,66,132.4z M106.5,132.3c33.9,0,67.6,0,101.4,0
		c0-0.6,0-1.1,0-1.6c0-9.1,0-18.1,0-27.2c0-2.6-0.1-5.3-0.4-7.9c-1.6-12.4-7-23-16.3-31.3c-11.6-10.3-25.2-14.6-40.7-12.6
		c-13.2,1.7-24.1,7.9-32.6,18.2c-7.7,9.4-11.4,20.3-11.4,32.5c0,9.5,0,19,0,28.6C106.5,131.4,106.5,131.8,106.5,132.3z"/>
</g>
</svg>
