<?xml version="1.0" encoding="utf-8"?>
<!-- Generator: Adobe Illustrator 26.3.1, SVG Export Plug-In . SVG Version: 6.00 Build 0)  -->
<svg version="1.1" id="Layer_1" xmlns="http://www.w3.org/2000/svg" xmlns:xlink="http://www.w3.org/1999/xlink" x="0px" y="0px"
	 viewBox="0 0 314.5 345.9" style="enable-background:new 0 0 314.5 345.9;" xml:space="preserve">
<style type="text/css">
	.st0{fill:#FFFFFF;}
	.st1{fill:#FF002B;}
	.st2{fill:#0C284C;}
	.st3{fill:#FF0000;}
	.st4{fill:#C1272D;}
	.st5{fill:#EA0029;}
	.st6{fill:#F4EDF0;}
	.st7{clip-path:url(#SVGID_00000172412867442449447800000001492536327345538734_);}
	.st8{fill:#EDF1F7;}
	.st9{fill:#0090D5;}
</style>
<g>
	<path class="st3" d="M13.5,182.5c0.3-7.2,0.5-14.4,1-21.6c0.5-6.8,1.8-13.5,3.4-20.1c3.8-15.5,10.1-29.9,18.7-43.3
		c9-14,20.2-26.1,33.4-36.2c16.9-12.9,35.6-21.7,56.4-26.2c13.1-2.9,26.3-4,39.7-3.1c31.1,2,58.6,12.9,82.7,32.7
		c6.2,5.1,12,10.8,17.2,16.9c4.6,5.3,4.6,13.1-0.3,18.3c-4.6,4.8-12,5.7-17.6,1.6c-1.4-1.1-2.6-2.5-3.8-3.8
		c-14.9-16.4-32.9-27.9-54.1-34.2c-7.6-2.3-15.4-3.7-23.3-4.3c-7.2-0.6-14.4-0.5-21.6,0.2c-13.5,1.4-26.4,5-38.6,10.9
		c-11.9,5.7-22.5,13.3-31.8,22.6c-10,10-18,21.5-23.8,34.4c-5,11-8.3,22.6-9.5,34.6c-0.5,5.1-0.7,10.2-0.8,15.3
		c-0.1,6.8,0,13.5,0,20.3c0,7-4.6,12.3-11.5,13.5c-6.9,1.2-14-3.8-15.2-10.8c-0.2-1-0.2-1.9-0.2-2.9c0-4.9,0-9.8,0-14.7
		C13.7,182.5,13.6,182.5,13.5,182.5z"/>
	<path class="st3" d="M211.2,188.8c0,11.6-0.6,23.1-1.7,34.6c-1.1,10.7-2.7,21.3-4.7,31.8c-1,5.1-5.4,9.2-10.2,9.7
		c-6.6,0.7-11.2-3.2-13-7.5c-1.5-3.3-1-6.6-0.5-10.1c1.4-8.8,2.8-17.7,3.8-26.6c1.8-15.5,1.9-31,1.6-46.5
		c-0.2-11.6-7.8-22-18.6-26.2c-11.2-4.3-23.8-1.3-31.8,7.5c-5.3,5.8-7.8,12.6-7.8,20.3c0,7.6,0,15.2-0.2,22.8
		c-0.3,10.4-1.4,20.8-3,31.1c-1.4,8.7-3.2,17.4-5.5,25.9c-1.5,5.7-5.7,9.2-11.5,9.3c-5.4,0.1-10.5-3.7-12-9
		c-0.7-2.4-0.8-4.9-0.1-7.3c2.7-10,4.6-20.2,5.9-30.5c1.3-9.9,1.8-19.8,1.8-29.8c0-4.7-0.1-9.5,0.1-14.2
		c0.3-14.3,5.6-26.7,15.7-36.7c11.9-11.9,26.5-17.1,43.3-15.6c12.7,1.1,23.7,6.4,32.7,15.3c8.6,8.5,14,18.8,15.3,30.8
		c0.7,6.4,0.4,12.9,0.6,19.4C211.2,187.8,211.2,188.3,211.2,188.8z"/>
	<path class="st3" d="M256.1,195.2c-0.4,7.2-0.9,17.7-1.6,28.2c-0.3,4.2-0.8,8.5-1.3,12.7c-0.9,6.7-7.6,11.7-14.3,10.8
		c-8.1-1.1-13.1-7.8-12.2-16.2c1.6-14,2.4-28,2.4-42.1c0-5.9,0.1-11.9-0.2-17.8c-0.5-11.2-3.7-21.6-9.3-31.3
		c-6.8-11.7-16.1-20.9-28-27.4c-12.5-6.8-26-9.6-40.1-8.4c-4.9,0.4-9.7,1.7-14.5,2.5c-7,1.2-14.1-1.7-17-8.5
		c-2.8-6.6,0-14.3,7.3-16.6c11.5-3.6,23.2-5.2,35.2-4.6c17.4,1,33.5,6,48.2,15.4c17.1,11,29.6,25.9,37.7,44.5
		c3.7,8.5,6,17.3,7.1,26.5C256.5,172.6,255.9,182.2,256.1,195.2z"/>
	<path class="st3" d="M171.1,190.5c-0.5,8.9-0.9,17.9-1.6,26.8c-1.1,13-3.3,25.9-6.2,38.7c-3.9,17.2-9.4,33.9-16.1,50.2
		c-2.1,5.2-7.1,8.2-12.9,8.1c-5.2-0.1-10.2-3.8-12-8.8c-1.1-3.2-1-6.5,0.2-9.7c3.1-8.5,6.4-17,9.2-25.7c4.1-12.7,6.9-25.7,9-38.9
		c2.6-16.7,3.4-33.5,3.3-50.4c0-2.1,0-4.3,0.1-6.4c0.3-7,6.1-12.4,13.2-12.5c7-0.1,13,5.1,13.4,12c0.3,5.5,0.1,11.1,0.1,16.7
		C170.8,190.5,170.9,190.5,171.1,190.5z"/>
	<path class="st3" d="M53.9,231.5c0.3-1.7,0.9-4.6,1.4-7.4c2.2-11.8,3.2-23.7,3.3-35.7c0-6.4,0-12.8,0.2-19.2
		c0.3-8.7,2.1-17.2,4.9-25.5c3.5-10.4,8.6-20,15.4-28.7c2.8-3.6,6.5-5.2,10.9-4.5c4.9,0.7,8.5,3.5,10.4,8.1c2.3,5.7,1.1,11-2.3,15.9
		c-6.2,9.1-10.2,19-11.8,29.8c-0.5,3.7-0.7,7.6-0.8,11.3c-0.2,7.2-0.1,14.4-0.3,21.5c-0.2,10.6-1.5,21.1-3.5,31.6
		c-0.5,2.9-1,5.8-1.8,8.6c-2.4,8.8-12.3,12.3-19.9,7.2C56.3,242.1,53.9,237.3,53.9,231.5z"/>
	<path class="st3" d="M300.9,180.9c0,6.8,0,11.8,0,16.8c-0.1,6.7-4.6,12-11.1,13.2c-7.1,1.3-14.3-3.6-15.5-10.8
		c-0.2-1-0.2-2.1-0.2-3.1c-0.1-8.9,0-17.8-0.2-26.6c-0.1-6.6-1.2-13.1-2.4-19.6c-1.5-7.7,4.1-15.1,11.8-15.8
		c7.2-0.7,13.2,4,14.7,11.2C300.4,158.2,301.2,170.4,300.9,180.9z"/>
</g>
</svg>
