<?xml version="1.0" encoding="utf-8"?>
<!-- Generator: Adobe Illustrator 26.3.1, SVG Export Plug-In . SVG Version: 6.00 Build 0)  -->
<svg version="1.1" id="Layer_1" xmlns="http://www.w3.org/2000/svg" xmlns:xlink="http://www.w3.org/1999/xlink" x="0px" y="0px"
	 viewBox="0 0 314.5 345.9" style="enable-background:new 0 0 314.5 345.9;" xml:space="preserve">
<style type="text/css">
	.st0{fill:#FFFFFF;}
	.st1{fill:#FF002B;}
	.st2{fill:#0C284C;}
	.st3{fill:#FF0000;}
	.st4{fill:#C1272D;}
	.st5{fill:#EA0029;}
	.st6{fill:#F4EDF0;}
	.st7{clip-path:url(#SVGID_00000034804942177767614050000012694906612184646577_);}
	.st8{fill:#EDF1F7;}
	.st9{fill:#0090D5;}
</style>
<g>
	<path class="st6" d="M12.4,240.1V105.9c0-25.4,12.9-38.2,38.7-38.2h212.3c25.9,0,38.7,12.8,38.7,38.2v134.2
		c0,25.4-12.8,38.1-38.7,38.1H51.1C25.3,278.2,12.4,265.5,12.4,240.1z M32.3,116.8h250V107c0-12.8-7-19.5-19.1-19.5H51.4
		c-12.3,0-19.1,6.7-19.1,19.5V116.8z M263.1,258.4c12.1,0,19.1-6.5,19.1-19.3v-94.3h-250V239c0,12.8,6.8,19.3,19.1,19.3H263.1z
		 M55.7,223.3v-22.8c0-7,4.8-11.8,12.1-11.8H98c7.3,0,12.1,4.8,12.1,11.8v22.8c0,6.9-4.8,11.8-12.1,11.8H67.8
		C60.5,235.1,55.7,230.2,55.7,223.3z"/>
</g>
</svg>
