<?xml version="1.0" encoding="utf-8"?>
<!-- Generator: Adobe Illustrator 26.3.1, SVG Export Plug-In . SVG Version: 6.00 Build 0)  -->
<svg version="1.1" id="Layer_1" xmlns="http://www.w3.org/2000/svg" xmlns:xlink="http://www.w3.org/1999/xlink" x="0px" y="0px"
	 viewBox="0 0 314.5 345.9" style="enable-background:new 0 0 314.5 345.9;" xml:space="preserve">
<style type="text/css">
	.st0{fill:#FFFFFF;}
	.st1{fill:#FF002B;}
	.st2{fill:#0C284C;}
	.st3{fill:#FF0000;}
	.st4{fill:#C1272D;}
	.st5{fill:#EA0029;}
	.st6{fill:#F4EDF0;}
	.st7{clip-path:url(#SVGID_00000078027838451385499940000011088196105135375264_);}
	.st8{fill:#EDF1F7;}
	.st9{fill:#0090D5;}
</style>
<g>
	<g>
		<path class="st3" d="M20.2,123.1c0-32,16.2-47.9,48.5-47.9h24.5c0.9-32.4,29-60.1,63.9-60.1c34.9,0,63.1,27.6,63.9,60.1h24.7
			c32.1,0,48.5,16.1,48.5,47.9v159.8c0,31.8-16.2,47.9-43.8,47.9H68.7c-32.3,0-48.5-15.9-48.5-47.9V123.1z M69,305.9h180.9
			c10.7,0,19.5-8.2,19.5-24.2V124.3c0-16.1-8.8-24.2-24.1-24.2H69c-15.4,0-23.9,8.2-23.9,24.2v157.3C45.1,297.7,53.6,305.9,69,305.9
			z M196.2,75.2c-0.6-20.1-17.3-36.6-39.1-36.6c-21.8,0-38.3,16.5-39.1,36.6H196.2z"/>
	</g>
</g>
</svg>
