<?xml version="1.0" encoding="utf-8"?>
<!-- Generator: Adobe Illustrator 26.3.1, SVG Export Plug-In . SVG Version: 6.00 Build 0)  -->
<svg version="1.1" id="Layer_1" xmlns="http://www.w3.org/2000/svg" xmlns:xlink="http://www.w3.org/1999/xlink" x="0px" y="0px"
	 viewBox="0 0 314.5 345.9" style="enable-background:new 0 0 314.5 345.9;" xml:space="preserve">
<style type="text/css">
	.st0{fill:#FFFFFF;}
	.st1{fill:#FF002B;}
	.st2{fill:#0C284C;}
	.st3{fill:#FF0000;}
	.st4{fill:#C1272D;}
	.st5{fill:#EA0029;}
	.st6{fill:#F4EDF0;}
	.st7{clip-path:url(#SVGID_00000093146996859849471780000002096428928491215003_);}
	.st8{fill:#EDF1F7;}
	.st9{fill:#0090D5;}
</style>
<g>
	<path class="st6" d="M20.1,123c0-32,16.2-47.9,48.5-47.9h24.6c0.9-32.5,29.1-60.1,64-60.1s63.2,27.7,64,60.1h24.7
		c32.2,0,48.5,16.1,48.5,47.9v160c0,31.8-16.2,47.9-43.9,47.9H68.6c-32.3,0-48.5-15.9-48.5-47.9V123z M68.9,306h181.2
		c10.7,0,19.5-8.2,19.5-24.3V124.3c0-16.1-8.8-24.3-24.1-24.3H68.9c-15.5,0-24,8.2-24,24.3v157.5C44.9,297.9,53.4,306,68.9,306z
		 M196.3,75.1C195.6,55,179,38.5,157.2,38.5S118.8,55,118.1,75.1H196.3z"/>
</g>
</svg>
